<svg width="84" height="86" viewBox="0 0 84 86" fill="none" xmlns="http://www.w3.org/2000/svg">
<rect y="1.1665" width="84" height="84" rx="12" fill="#FFF3F1"/>
<path opacity="0.35" d="M42.0001 69.403C57.1344 69.403 69.4031 57.1342 69.4031 42C69.4031 26.8657 57.1344 14.5969 42.0001 14.5969C26.8658 14.5969 14.597 26.8657 14.597 42C14.597 57.1342 26.8658 69.403 42.0001 69.403Z" fill="#FF554A"/>
<path d="M53.2438 49.0612C53.2438 53.3964 51.0982 58.4413 43.4911 58.4413H36.9116C34.5166 58.4413 32.5737 56.4984 32.5737 54.1034V29.8955C32.5765 27.5005 34.5166 25.5576 36.9116 25.5576H42.4224C48.3935 25.5576 52.1285 28.3911 52.1285 34.0115C52.1285 35.9625 52.1888 38.8426 48.0427 41.2102V41.3007C48.6648 41.4596 53.2438 42.8626 53.2438 49.0612ZM45.5847 35.1953C45.5847 32.4659 43.8199 31.6904 42.0059 31.6904H39.4985V38.8426H42.0524C44.1351 38.8426 45.5847 37.53 45.5847 35.1953ZM46.1876 48.3843C46.1876 46.3154 45.0777 44.2739 42.1922 44.2739H39.4985V52.3057H42.2881C45.0202 52.3085 46.1876 50.4368 46.1876 48.3843Z" fill="#FF554A"/>
<path d="M44.7402 22.8175C44.7402 21.3048 43.5126 20.0771 41.9999 20.0771C40.4873 20.0771 39.2596 21.3048 39.2596 22.8175C39.2596 23.3271 39.2596 25.0481 39.2596 25.5578C39.2596 27.0704 40.4873 28.2981 41.9999 28.2981C43.5126 28.2981 44.7402 27.0704 44.7402 25.5578C44.7402 25.0481 44.7402 23.3271 44.7402 22.8175Z" fill="#FF554A"/>
<path d="M44.7402 58.4412C44.7402 56.9286 43.5126 55.7009 41.9999 55.7009C40.4873 55.7009 39.2596 56.9286 39.2596 58.4412C39.2596 58.9509 39.2596 60.6718 39.2596 61.1815C39.2596 62.6942 40.4873 63.9218 41.9999 63.9218C43.5126 63.9218 44.7402 62.6942 44.7402 61.1815C44.7402 60.6718 44.7402 58.9509 44.7402 58.4412Z" fill="#FF554A"/>
</svg>
