<svg width="84" height="86" viewBox="0 0 84 86" fill="none" xmlns="http://www.w3.org/2000/svg">
<rect y="1.1665" width="84" height="84" rx="12" fill="#FFF3F1"/>
<path opacity="0.35" d="M60.441 63.0756H23.5588C19.1936 63.0756 15.6555 59.5376 15.6555 55.1723V28.8279C15.6555 24.4626 19.1936 20.9246 23.5588 20.9246H60.441C64.8063 20.9246 68.3443 24.4626 68.3443 28.8279V55.1723C68.3443 59.5376 64.8063 63.0756 60.441 63.0756Z" fill="#FF554A"/>
<path d="M42 34.0968H26.1934C24.7366 34.0968 23.559 32.9165 23.559 31.4623C23.559 30.0081 24.7366 28.8279 26.1934 28.8279H42C43.4569 28.8279 44.6345 30.0081 44.6345 31.4623C44.6345 32.9165 43.4569 34.0968 42 34.0968Z" fill="#FF554A"/>
<path d="M54.8723 34.7293L53.2232 33.0802C52.3301 32.1871 52.3301 30.7382 53.2232 29.8451L54.8723 28.1959C55.7654 27.3029 57.2143 27.3029 58.1074 28.1959L59.7566 29.8451C60.6496 30.7382 60.6496 32.1871 59.7566 33.0802L58.1074 34.7293C57.2143 35.6251 55.7654 35.6251 54.8723 34.7293Z" fill="#FF554A"/>
<path d="M36.7312 44.6346H26.1934C24.7366 44.6346 23.559 43.4544 23.559 42.0002C23.559 40.546 24.7366 39.3657 26.1934 39.3657H36.7312C38.188 39.3657 39.3656 40.546 39.3656 42.0002C39.3656 43.4544 38.188 44.6346 36.7312 44.6346Z" fill="#FF554A"/>
<path d="M54.8723 45.2672L53.2232 43.618C52.3301 42.7249 52.3301 41.276 53.2232 40.3829L54.8723 38.7338C55.7654 37.8407 57.2143 37.8407 58.1074 38.7338L59.7566 40.3829C60.6496 41.276 60.6496 42.7249 59.7566 43.618L58.1074 45.2672C57.2143 46.1629 55.7654 46.1629 54.8723 45.2672Z" fill="#FF554A"/>
<path d="M42 55.1722H26.1934C24.7366 55.1722 23.559 53.992 23.559 52.5378C23.559 51.0836 24.7366 49.9033 26.1934 49.9033H42C43.4569 49.9033 44.6345 51.0836 44.6345 52.5378C44.6345 53.992 43.4569 55.1722 42 55.1722Z" fill="#FF554A"/>
<path d="M54.8723 55.8048L53.2232 54.1556C52.3301 53.2625 52.3301 51.8136 53.2232 50.9205L54.8723 49.2714C55.7654 48.3783 57.2143 48.3783 58.1074 49.2714L59.7566 50.9205C60.6496 51.8136 60.6496 53.2625 59.7566 54.1556L58.1074 55.8048C57.2143 56.7005 55.7654 56.7005 54.8723 55.8048Z" fill="#FF554A"/>
</svg>
