<svg width="84" height="86" viewBox="0 0 84 86" fill="none" xmlns="http://www.w3.org/2000/svg">
<rect y="1.1665" width="84" height="84" rx="18.8312" fill="#FFF3F1"/>
<g clip-path="url(#clip0_1413_32242)">
<path opacity="0.35" d="M60.4133 50.3136C61.4464 47.7399 62.0278 44.9403 62.0278 41.9998C62.0278 29.6497 52.0167 19.6387 39.6667 19.6387C27.3166 19.6387 17.3055 29.6497 17.3055 41.9998C17.3055 54.3498 27.3166 64.3609 39.6667 64.3609C42.6071 64.3609 45.4068 63.7795 47.9805 62.7464C49.595 65.0697 52.2761 66.597 55.3194 66.597C60.259 66.597 64.2639 62.5921 64.2639 57.6526C64.2639 54.6092 62.7366 51.9281 60.4133 50.3136Z" fill="#FF554A"/>
<path d="M32.5043 49.162C33.3763 50.0363 34.7918 50.0363 35.6661 49.162L40.4044 45.1437C42.048 43.7506 42.9223 41.6531 42.7546 39.5064L41.9026 28.583C41.9026 27.3487 40.9008 26.3469 39.6665 26.3469C38.4322 26.3469 37.4304 27.3487 37.4304 28.583L36.489 39.1218C36.3727 40.3964 35.8964 41.6129 35.1138 42.6258L32.5043 46.0001C31.6299 46.8722 31.6299 48.2899 32.5043 49.162Z" fill="#FF554A"/>
<path d="M55.3193 46.4719C49.1522 46.4719 44.1388 51.4853 44.1388 57.6525C44.1388 63.8286 49.1522 68.833 55.3193 68.833C61.4955 68.833 66.4999 63.8286 66.4999 57.6525C66.4999 51.4853 61.4955 46.4719 55.3193 46.4719ZM56.2898 64.6761V65.575C56.2898 66.1519 55.8359 66.5969 55.2769 66.5969C54.6999 66.5969 54.255 66.1519 54.255 65.575V64.8595C53.3985 64.7723 52.683 64.5196 52.1239 64.1864C51.433 63.8018 51.2586 62.885 51.7036 62.2387L51.7483 62.1784C52.1239 61.6193 52.8663 61.3913 53.4701 61.7065C53.8279 61.881 54.2729 62.0375 54.7894 62.0375C55.9343 62.0375 56.1355 61.0581 56.1355 60.631C56.1355 58.3256 51.5247 59.1104 51.5247 54.7098C51.5247 52.6928 52.6427 51.1275 54.3466 50.5685V49.7389C54.3466 49.162 54.8185 48.708 55.3775 48.708C55.9365 48.708 56.3994 49.162 56.3994 49.7389V50.3426C57.0546 50.412 57.5868 50.5707 58.0161 50.7451C58.7943 51.1029 59.0648 52.0913 58.5483 52.8068C58.1726 53.339 57.4571 53.6096 56.8265 53.339C56.5828 53.2071 56.2675 53.1378 55.9097 53.1378C55.5787 53.1378 54.5479 53.2764 54.5479 54.5711C54.5479 56.7625 59.1945 56.1789 59.1945 60.4051C59.1878 62.3774 58.1838 64.0992 56.2898 64.6761Z" fill="#FF554A"/>
</g>
<defs>
<clipPath id="clip0_1413_32242">
<rect width="53.6667" height="53.6667" fill="white" transform="translate(12.8334 15.1665)"/>
</clipPath>
</defs>
</svg>
