<svg width="84" height="86" viewBox="0 0 84 86" fill="none" xmlns="http://www.w3.org/2000/svg">
<rect y="1.1665" width="84" height="84" rx="12" fill="#FFF3F1"/>
<path opacity="0.35" d="M52.8235 71.7647H31.1764C26.6927 71.7647 23.0587 68.1307 23.0587 63.647V20.3528C23.0587 15.8691 26.6927 12.2351 31.1764 12.2351H52.8235C57.3072 12.2351 60.9412 15.8691 60.9412 20.3528V63.647C60.9412 68.1307 57.3072 71.7647 52.8235 71.7647Z" fill="#FF554A"/>
<path d="M47.4118 60.9414C46.9085 60.9414 37.0915 60.9414 36.5882 60.9414C35.0946 60.9414 33.8823 62.1536 33.8823 63.6473C33.8823 65.1409 35.0946 66.3532 36.5882 66.3532C37.0915 66.3532 46.9085 66.3532 47.4118 66.3532C48.9054 66.3532 50.1177 65.1409 50.1177 63.6473C50.1177 62.1536 48.9054 60.9414 47.4118 60.9414Z" fill="#FF554A"/>
</svg>
