<svg width="84" height="84" viewBox="0 0 84 84" fill="none" xmlns="http://www.w3.org/2000/svg">
<rect x="-0.000244141" width="84" height="84" rx="12" fill="#FFF3F1"/>
<path opacity="0.35" d="M57.5165 59.7333H26.4831C22.8101 59.7333 19.8331 56.7563 19.8331 53.0833V30.9166C19.8331 27.2436 22.8101 24.2666 26.4831 24.2666H57.5165C61.1895 24.2666 64.1665 27.2436 64.1665 30.9166V53.0833C64.1665 56.7563 61.1895 59.7333 57.5165 59.7333Z" fill="#FF554A"/>
<path d="M37.4379 41.479L19.8331 30.9166C19.8331 27.2436 22.8101 24.2666 26.4831 24.2666H57.5165C61.1895 24.2666 64.1665 27.2436 64.1665 30.9166L46.5617 41.479C43.7532 43.1637 40.2464 43.1637 37.4379 41.479Z" fill="#FF554A"/>
</svg>
