<svg width="84" height="86" viewBox="0 0 84 86" fill="none" xmlns="http://www.w3.org/2000/svg">
<path d="M72 1.1665H12C5.37258 1.1665 0 6.53909 0 13.1665V73.1665C0 79.7939 5.37258 85.1665 12 85.1665H72C78.6274 85.1665 84 79.7939 84 73.1665V13.1665C84 6.53909 78.6274 1.1665 72 1.1665Z" fill="#3C78D8" fill-opacity="0.29"/>
<path opacity="0.35" d="M66.2595 32.1811C66.3985 29.7178 64.6693 27.457 62.2329 27.0546C52.1092 25.3889 52.8872 17.6113 42.0001 17.6113C31.113 17.6113 31.891 25.3889 21.7673 27.0546C19.3309 27.4546 17.6017 29.7154 17.7407 32.1811C18.7846 50.7896 26.2304 59.6305 42.0001 66.3886C57.7698 59.6305 65.2156 50.7896 66.2595 32.1811Z" fill="#6D9EEB"/>
<path d="M46.8773 39.5606C46.8773 36.8656 44.6945 34.6829 41.9996 34.6829C39.3046 34.6829 37.1218 36.8656 37.1218 39.5606C37.1218 41.3605 38.1096 42.9165 39.5607 43.7627V46.8772C39.5607 48.2234 40.6533 49.316 41.9996 49.316C43.3458 49.316 44.4384 48.2234 44.4384 46.8772V43.7627C45.8895 42.9165 46.8773 41.3605 46.8773 39.5606Z" fill="#073763"/>
</svg>
