<svg width="84" height="86" viewBox="0 0 84 86" fill="none" xmlns="http://www.w3.org/2000/svg">
<path d="M68 1.1665H16C7.16344 1.1665 0 8.32995 0 17.1665V69.1665C0 78.0031 7.16344 85.1665 16 85.1665H68C76.8366 85.1665 84 78.0031 84 69.1665V17.1665C84 8.32995 76.8366 1.1665 68 1.1665Z" fill="#3C78D8" fill-opacity="0.29"/>
<path opacity="0.35" d="M25.2276 68.5534H19.6372C16.5486 68.5534 14.0469 66.0517 14.0469 62.9631V60.1679C14.0469 57.0792 16.5486 54.5775 19.6372 54.5775H25.2276C28.3163 54.5775 30.818 57.0792 30.818 60.1679V62.9631C30.818 66.0517 28.3163 68.5534 25.2276 68.5534Z" fill="#6090DB" fill-opacity="0.5"/>
<path opacity="0.35" d="M44.7979 68.5535H39.2076C36.1189 68.5535 33.6172 66.0518 33.6172 62.9631V51.7824C33.6172 48.6937 36.1189 46.192 39.2076 46.192H44.7979C47.8866 46.192 50.3883 48.6937 50.3883 51.7824V62.9631C50.3883 66.0518 47.8866 68.5535 44.7979 68.5535Z" fill="#6090DB" fill-opacity="0.5"/>
<path opacity="0.35" d="M64.3604 68.5537H58.7701C55.6814 68.5537 53.1797 66.052 53.1797 62.9633V43.397C53.1797 40.3083 55.6814 37.8066 58.7701 37.8066H64.3604C67.4491 37.8066 69.9508 40.3083 69.9508 43.397V62.9633C69.9508 66.052 67.4491 68.5537 64.3604 68.5537Z" fill="#6090DB" fill-opacity="0.5"/>
<path d="M67.1643 16.8551C67.167 16.0752 66.5353 15.4435 65.7555 15.4463L57.2553 15.4854C56.1233 15.491 55.5586 16.8607 56.3609 17.6629L64.9505 26.2525C65.7527 27.0547 67.1223 26.4901 67.1279 25.358L67.1643 16.8551Z" fill="#073763"/>
<path d="M19.6396 43.3995C18.9241 43.3995 18.2085 43.1256 17.6634 42.5806C16.5705 41.4876 16.5705 39.7211 17.6634 38.6282L26.049 30.2426C26.7981 29.4935 27.9022 29.2308 28.9085 29.5662L35.656 31.8163L42.8201 24.6522C43.5692 23.9031 44.6761 23.6432 45.6796 23.9758L52.4271 26.2259L59.5912 19.0619C60.6841 17.969 62.4507 17.969 63.5436 19.0619C64.6365 20.1548 64.6365 21.9213 63.5436 23.0143L55.158 31.3998C54.4089 32.1489 53.3048 32.4117 52.2986 32.0763L45.551 29.8261L38.3869 36.9902C37.6378 37.7393 36.5309 37.9992 35.5275 37.6666L28.7799 35.4165L21.6158 42.5806C21.0708 43.1256 20.3552 43.3995 19.6396 43.3995Z" fill="#073763"/>
</svg>
