<svg width="84" height="86" viewBox="0 0 84 86" fill="none" xmlns="http://www.w3.org/2000/svg">
<path d="M72 1.1665H12C5.37258 1.1665 0 6.53909 0 13.1665V73.1665C0 79.7939 5.37258 85.1665 12 85.1665H72C78.6274 85.1665 84 79.7939 84 73.1665V13.1665C84 6.53909 78.6274 1.1665 72 1.1665Z" fill="#3C78D8" fill-opacity="0.29"/>
<path opacity="0.35" d="M60.441 63.0756H23.5588C19.1936 63.0756 15.6555 59.5376 15.6555 55.1723V28.8279C15.6555 24.4626 19.1936 20.9246 23.5588 20.9246H60.441C64.8063 20.9246 68.3443 24.4626 68.3443 28.8279V55.1723C68.3443 59.5376 64.8063 63.0756 60.441 63.0756Z" fill="#6090DB" fill-opacity="0.5"/>
<path d="M42.0001 34.0968H26.1935C24.7367 34.0968 23.5591 32.9165 23.5591 31.4623C23.5591 30.0081 24.7367 28.8279 26.1935 28.8279H42.0001C43.457 28.8279 44.6346 30.0081 44.6346 31.4623C44.6346 32.9165 43.457 34.0968 42.0001 34.0968Z" fill="#073763"/>
<path d="M54.8724 34.7293L53.2233 33.0802C52.3302 32.1871 52.3302 30.7382 53.2233 29.8451L54.8724 28.1959C55.7655 27.3029 57.2144 27.3029 58.1075 28.1959L59.7567 29.8451C60.6497 30.7382 60.6497 32.1871 59.7567 33.0802L58.1075 34.7293C57.2144 35.6251 55.7655 35.6251 54.8724 34.7293Z" fill="#073763"/>
<path d="M36.7313 44.6346H26.1935C24.7367 44.6346 23.5591 43.4544 23.5591 42.0002C23.5591 40.546 24.7367 39.3657 26.1935 39.3657H36.7313C38.1881 39.3657 39.3657 40.546 39.3657 42.0002C39.3657 43.4544 38.1881 44.6346 36.7313 44.6346Z" fill="#073763"/>
<path d="M54.8724 45.2672L53.2233 43.618C52.3302 42.7249 52.3302 41.276 53.2233 40.3829L54.8724 38.7338C55.7655 37.8407 57.2144 37.8407 58.1075 38.7338L59.7567 40.3829C60.6497 41.276 60.6497 42.7249 59.7567 43.618L58.1075 45.2672C57.2144 46.1629 55.7655 46.1629 54.8724 45.2672Z" fill="#073763"/>
<path d="M42.0001 55.1722H26.1935C24.7367 55.1722 23.5591 53.992 23.5591 52.5378C23.5591 51.0836 24.7367 49.9033 26.1935 49.9033H42.0001C43.457 49.9033 44.6346 51.0836 44.6346 52.5378C44.6346 53.992 43.457 55.1722 42.0001 55.1722Z" fill="#073763"/>
<path d="M54.8724 55.8048L53.2233 54.1556C52.3302 53.2625 52.3302 51.8136 53.2233 50.9205L54.8724 49.2714C55.7655 48.3783 57.2144 48.3783 58.1075 49.2714L59.7567 50.9205C60.6497 51.8136 60.6497 53.2625 59.7567 54.1556L58.1075 55.8048C57.2144 56.7005 55.7655 56.7005 54.8724 55.8048Z" fill="#073763"/>
</svg>
