<svg width="84" height="86" viewBox="0 0 84 86" fill="none" xmlns="http://www.w3.org/2000/svg">
<path d="M68 1.1665H16C7.16344 1.1665 0 8.32995 0 17.1665V69.1665C0 78.0031 7.16344 85.1665 16 85.1665H68C76.8366 85.1665 84 78.0031 84 69.1665V17.1665C84 8.32995 76.8366 1.1665 68 1.1665Z" fill="#3C78D8" fill-opacity="0.29"/>
<path opacity="0.25" d="M42.0013 65.3298C54.8859 65.3298 65.3308 54.8849 65.3308 42.0004C65.3308 29.1159 54.8859 18.6709 42.0013 18.6709C29.1168 18.6709 18.6719 29.1159 18.6719 42.0004C18.6719 54.8849 29.1168 65.3298 42.0013 65.3298Z" fill="#6090DB" fill-opacity="0.5"/>
<path d="M41.9998 16.0784C27.7066 16.0784 16.0781 27.7068 16.0781 42C16.0781 56.2932 27.7066 67.9216 41.9998 67.9216C56.2929 67.9216 67.9214 56.2932 67.9214 42C67.9214 27.7068 56.2929 16.0784 41.9998 16.0784ZM62.5582 39.4078H54.901C54.6132 33.0778 53.2834 27.5435 51.2305 23.4557C57.3013 26.4911 61.6769 32.4064 62.5582 39.4078ZM41.9998 62.7373C39.0525 62.7373 34.8687 55.7462 34.2958 44.5922H49.7063C49.1308 55.7462 44.947 62.7373 41.9998 62.7373ZM34.2958 39.4078C34.8687 28.2538 39.0525 21.2627 41.9998 21.2627C44.947 21.2627 49.1308 28.2538 49.7037 39.4078H34.2958ZM32.7717 23.4557C30.7187 27.5435 29.3863 33.0778 29.1012 39.4078H21.4413C22.3226 32.4064 26.6982 26.4911 32.7717 23.4557ZM21.4413 44.5922H29.0986C29.3863 50.9222 30.7161 56.4565 32.7691 60.5443C26.6982 57.5089 22.3226 51.5936 21.4413 44.5922ZM51.2279 60.5443C53.2809 56.4565 54.6106 50.9248 54.8984 44.5922H62.5556C61.6769 51.5936 57.3013 57.5089 51.2279 60.5443Z" fill="#073763"/>
</svg>
