<svg width="84" height="84" viewBox="0 0 84 84" fill="none" xmlns="http://www.w3.org/2000/svg">
<g clip-path="url(#clip0_304_49)">
<path d="M68 0H16C7.16344 0 0 7.16344 0 16V68C0 76.8366 7.16344 84 16 84H68C76.8366 84 84 76.8366 84 68V16C84 7.16344 76.8366 0 68 0Z" fill="#6090DB" fill-opacity="0.5"/>
<path opacity="0.35" d="M48.1612 17.3538C37.9523 17.3538 29.6758 25.6303 29.6758 35.8392C29.6758 46.0481 37.9523 54.3247 48.1612 54.3247C58.3702 54.3247 66.6467 46.0481 66.6467 35.8392C66.6467 25.6303 58.3702 17.3538 48.1612 17.3538ZM54.3231 34.6069C51.5995 34.6069 49.3936 32.4009 49.3936 29.6774C49.3936 26.9539 51.5995 24.7479 54.3231 24.7479C57.0466 24.7479 59.2525 26.9539 59.2525 29.6774C59.2525 32.4009 57.0466 34.6069 54.3231 34.6069Z" fill="#6090DB" fill-opacity="0.6"/>
<path d="M31.122 43.0167L18.0737 56.065C17.6104 56.5284 17.3516 57.1544 17.3516 57.8076V64.1814C17.3516 65.5419 18.4558 66.6461 19.8163 66.6461H26.1901C26.8432 66.6461 27.4717 66.3873 27.9326 65.9239L31.1195 62.737C31.7727 62.0839 32.1399 61.1966 32.1399 60.2723C32.1399 58.3473 33.7001 56.7872 35.6251 56.7872C36.5493 56.7872 37.4366 56.4199 38.0898 55.7668L40.9809 52.8756C36.5444 51.0049 32.9927 47.4508 31.122 43.0167Z" fill="#073763"/>
</g>
<defs>
<clipPath id="clip0_304_49">
<rect width="84" height="84" fill="white"/>
</clipPath>
</defs>
</svg>
