<svg width="381" height="294" viewBox="0 0 381 294" fill="none" xmlns="http://www.w3.org/2000/svg">
<path d="M358.913 0H22.087C9.88867 0 0 10.7452 0 24V270C0 283.255 9.88867 294 22.087 294H358.913C371.111 294 381 283.255 381 270V24C381 10.7452 371.111 0 358.913 0Z" fill="white"/>
<path d="M102 51.1781V40.6016H89.7001" stroke="#004A98" stroke-width="2.61428" stroke-linecap="round" stroke-linejoin="round"/>
<path d="M102 40.6016L87.5332 53.0411C87.2794 53.2595 86.9781 53.4327 86.6463 53.5509C86.3145 53.6691 85.959 53.7299 85.5999 53.7299C85.2408 53.7299 84.8851 53.6691 84.5535 53.5509C84.2217 53.4327 83.9203 53.2595 83.6666 53.0411L77.9666 48.1399C77.7128 47.9214 77.4114 47.7482 77.0797 47.63C76.7479 47.5118 76.3924 47.451 76.0333 47.451C75.6742 47.451 75.3186 47.5118 74.9869 47.63C74.6551 47.7482 74.3538 47.9214 74.0999 48.1399L61 59.4042" stroke="#004A98" stroke-width="2.61428" stroke-linecap="round" stroke-linejoin="round"/>
<path d="M121.303 45H118.49L123.611 30.4545H126.864L131.991 45H129.179L125.294 33.4375H125.18L121.303 45ZM121.395 39.2969H129.065V41.4134H121.395V39.2969ZM136.365 38.608V45H133.794V34.0909H136.251V35.9446H136.379C136.63 35.3338 137.03 34.8485 137.579 34.4886C138.133 34.1288 138.817 33.9489 139.632 33.9489C140.385 33.9489 141.04 34.1098 141.599 34.4318C142.163 34.7538 142.598 35.2202 142.906 35.831C143.218 36.4418 143.372 37.1828 143.368 38.054V45H140.797V38.4517C140.797 37.7225 140.607 37.152 140.228 36.7401C139.854 36.3281 139.336 36.1222 138.673 36.1222C138.223 36.1222 137.823 36.2216 137.473 36.4205C137.127 36.6146 136.855 36.8963 136.656 37.2656C136.462 37.6349 136.365 38.0824 136.365 38.608ZM148.552 38.608V45H145.981V34.0909H148.439V35.9446H148.566C148.817 35.3338 149.217 34.8485 149.767 34.4886C150.321 34.1288 151.005 33.9489 151.819 33.9489C152.572 33.9489 153.228 34.1098 153.787 34.4318C154.35 34.7538 154.786 35.2202 155.093 35.831C155.406 36.4418 155.56 37.1828 155.555 38.054V45H152.984V38.4517C152.984 37.7225 152.795 37.152 152.416 36.7401C152.042 36.3281 151.523 36.1222 150.86 36.1222C150.411 36.1222 150.011 36.2216 149.66 36.4205C149.315 36.6146 149.042 36.8963 148.843 37.2656C148.649 37.6349 148.552 38.0824 148.552 38.608ZM165.122 40.4119V34.0909H167.693V45H165.2V43.0611H165.086C164.84 43.6719 164.435 44.1714 163.872 44.5597C163.313 44.9479 162.624 45.142 161.805 45.142C161.09 45.142 160.458 44.9834 159.909 44.6662C159.364 44.3442 158.938 43.8778 158.63 43.267C158.323 42.6515 158.169 41.9081 158.169 41.0369V34.0909H160.74V40.6392C160.74 41.3305 160.929 41.8797 161.308 42.2869C161.687 42.6941 162.184 42.8977 162.799 42.8977C163.178 42.8977 163.545 42.8054 163.9 42.6207C164.255 42.4361 164.547 42.1615 164.774 41.7969C165.006 41.4276 165.122 40.9659 165.122 40.4119ZM173.476 45.2202C172.785 45.2202 172.162 45.0971 171.608 44.8509C171.059 44.5999 170.623 44.2306 170.301 43.7429C169.984 43.2552 169.825 42.6539 169.825 41.9389C169.825 41.3234 169.939 40.8144 170.166 40.4119C170.393 40.0095 170.704 39.6875 171.097 39.446C171.49 39.2045 171.932 39.0223 172.425 38.8991C172.922 38.7713 173.436 38.679 173.966 38.6222C174.605 38.5559 175.124 38.4967 175.521 38.4446C175.919 38.3878 176.208 38.3026 176.388 38.1889C176.572 38.0705 176.665 37.8883 176.665 37.642V37.5994C176.665 37.0644 176.506 36.6501 176.189 36.3565C175.872 36.063 175.415 35.9162 174.818 35.9162C174.188 35.9162 173.689 36.0535 173.32 36.3281C172.955 36.6027 172.709 36.9271 172.581 37.3011L170.18 36.9602C170.37 36.2973 170.682 35.7434 171.118 35.2983C171.554 34.8485 172.086 34.5123 172.716 34.2898C173.346 34.0625 174.042 33.9489 174.804 33.9489C175.33 33.9489 175.853 34.0104 176.374 34.1335C176.894 34.2566 177.37 34.4602 177.801 34.7443C178.232 35.0237 178.578 35.4048 178.838 35.8878C179.103 36.3707 179.236 36.9744 179.236 37.6989V45H176.764V43.5014H176.679C176.523 43.8045 176.303 44.0885 176.018 44.3537C175.739 44.6141 175.386 44.8248 174.96 44.9858C174.539 45.142 174.044 45.2202 173.476 45.2202ZM174.143 43.331C174.66 43.331 175.107 43.2292 175.486 43.0256C175.865 42.8172 176.156 42.5426 176.359 42.2017C176.568 41.8608 176.672 41.4891 176.672 41.0866V39.8011C176.591 39.8674 176.454 39.929 176.26 39.9858C176.071 40.0426 175.857 40.0923 175.621 40.1349C175.384 40.1776 175.15 40.2154 174.918 40.2486C174.686 40.2817 174.484 40.3101 174.314 40.3338C173.93 40.3859 173.587 40.4711 173.284 40.5895C172.981 40.7079 172.742 40.8736 172.567 41.0866C172.392 41.295 172.304 41.5649 172.304 41.8963C172.304 42.3698 172.477 42.7273 172.822 42.9688C173.168 43.2102 173.608 43.331 174.143 43.331ZM184.392 30.4545V45H181.821V30.4545H184.392ZM192.11 45V30.4545H197.565C198.682 30.4545 199.62 30.6487 200.377 31.0369C201.14 31.4252 201.715 31.9697 202.103 32.6705C202.496 33.3665 202.693 34.1785 202.693 35.1065C202.693 36.0393 202.494 36.849 202.096 37.5355C201.703 38.2173 201.123 38.7453 200.356 39.1193C199.589 39.4886 198.647 39.6733 197.529 39.6733H193.645V37.4858H197.174C197.828 37.4858 198.363 37.3958 198.779 37.2159C199.196 37.0312 199.504 36.7637 199.703 36.4134C199.906 36.0582 200.008 35.6226 200.008 35.1065C200.008 34.5904 199.906 34.1501 199.703 33.7855C199.499 33.4162 199.189 33.1368 198.772 32.9474C198.356 32.7533 197.818 32.6562 197.16 32.6562H194.745V45H192.11ZM199.625 38.4091L203.225 45H200.285L196.748 38.4091H199.625ZM209.678 45.2131C208.584 45.2131 207.64 44.9858 206.844 44.5312C206.053 44.072 205.445 43.4233 205.019 42.5852C204.593 41.7424 204.38 40.7505 204.38 39.6094C204.38 38.4872 204.593 37.5024 205.019 36.6548C205.45 35.8026 206.051 35.1397 206.823 34.6662C207.595 34.188 208.501 33.9489 209.543 33.9489C210.215 33.9489 210.85 34.0578 211.446 34.2756C212.048 34.4886 212.578 34.8201 213.037 35.2699C213.501 35.7197 213.866 36.2926 214.131 36.9886C214.396 37.6799 214.529 38.5038 214.529 39.4602V40.2486H205.587V38.5156H212.064C212.06 38.0232 211.953 37.5852 211.745 37.2017C211.536 36.8134 211.245 36.508 210.871 36.2855C210.502 36.063 210.071 35.9517 209.578 35.9517C209.053 35.9517 208.591 36.0795 208.194 36.3352C207.796 36.5862 207.486 36.9176 207.263 37.3295C207.045 37.7367 206.934 38.1842 206.929 38.6719V40.1847C206.929 40.8191 207.045 41.3636 207.277 41.8182C207.509 42.268 207.834 42.6136 208.25 42.8551C208.667 43.0919 209.155 43.2102 209.713 43.2102C210.087 43.2102 210.426 43.1581 210.729 43.054C211.032 42.9451 211.295 42.7865 211.517 42.5781C211.74 42.3698 211.908 42.1117 212.022 41.804L214.422 42.0739C214.271 42.7083 213.982 43.2623 213.556 43.7358C213.134 44.2045 212.595 44.5691 211.936 44.8295C211.278 45.0852 210.525 45.2131 209.678 45.2131ZM226.136 34.0909L222.251 45H219.41L215.525 34.0909H218.266L220.773 42.1946H220.887L223.401 34.0909H226.136ZM232.373 45.2131C231.279 45.2131 230.335 44.9858 229.539 44.5312C228.749 44.072 228.14 43.4233 227.714 42.5852C227.288 41.7424 227.075 40.7505 227.075 39.6094C227.075 38.4872 227.288 37.5024 227.714 36.6548C228.145 35.8026 228.746 35.1397 229.518 34.6662C230.29 34.188 231.197 33.9489 232.238 33.9489C232.911 33.9489 233.545 34.0578 234.142 34.2756C234.743 34.4886 235.273 34.8201 235.733 35.2699C236.197 35.7197 236.561 36.2926 236.826 36.9886C237.092 37.6799 237.224 38.5038 237.224 39.4602V40.2486H228.282V38.5156H234.76C234.755 38.0232 234.648 37.5852 234.44 37.2017C234.232 36.8134 233.94 36.508 233.566 36.2855C233.197 36.063 232.766 35.9517 232.274 35.9517C231.748 35.9517 231.287 36.0795 230.889 36.3352C230.491 36.5862 230.181 36.9176 229.958 37.3295C229.741 37.7367 229.629 38.1842 229.625 38.6719V40.1847C229.625 40.8191 229.741 41.3636 229.973 41.8182C230.205 42.268 230.529 42.6136 230.946 42.8551C231.362 43.0919 231.85 43.2102 232.409 43.2102C232.783 43.2102 233.121 43.1581 233.424 43.054C233.727 42.9451 233.99 42.7865 234.213 42.5781C234.435 42.3698 234.603 42.1117 234.717 41.804L237.118 42.0739C236.966 42.7083 236.677 43.2623 236.251 43.7358C235.83 44.2045 235.29 44.5691 234.632 44.8295C233.974 45.0852 233.221 45.2131 232.373 45.2131ZM241.97 38.608V45H239.399V34.0909H241.857V35.9446H241.984C242.235 35.3338 242.635 34.8485 243.185 34.4886C243.739 34.1288 244.423 33.9489 245.237 33.9489C245.99 33.9489 246.646 34.1098 247.205 34.4318C247.768 34.7538 248.204 35.2202 248.511 35.831C248.824 36.4418 248.978 37.1828 248.973 38.054V45H246.402V38.4517C246.402 37.7225 246.213 37.152 245.834 36.7401C245.46 36.3281 244.941 36.1222 244.278 36.1222C243.829 36.1222 243.429 36.2216 243.078 36.4205C242.732 36.6146 242.46 36.8963 242.261 37.2656C242.067 37.6349 241.97 38.0824 241.97 38.608ZM258.54 40.4119V34.0909H261.111V45H258.618V43.0611H258.504C258.258 43.6719 257.853 44.1714 257.29 44.5597C256.731 44.9479 256.042 45.142 255.223 45.142C254.508 45.142 253.876 44.9834 253.327 44.6662C252.782 44.3442 252.356 43.8778 252.048 43.267C251.741 42.6515 251.587 41.9081 251.587 41.0369V34.0909H254.158V40.6392C254.158 41.3305 254.347 41.8797 254.726 42.2869C255.105 42.6941 255.602 42.8977 256.217 42.8977C256.596 42.8977 256.963 42.8054 257.318 42.6207C257.673 42.4361 257.964 42.1615 258.192 41.7969C258.424 41.4276 258.54 40.9659 258.54 40.4119ZM268.584 45.2131C267.49 45.2131 266.546 44.9858 265.75 44.5312C264.96 44.072 264.351 43.4233 263.925 42.5852C263.499 41.7424 263.286 40.7505 263.286 39.6094C263.286 38.4872 263.499 37.5024 263.925 36.6548C264.356 35.8026 264.957 35.1397 265.729 34.6662C266.501 34.188 267.408 33.9489 268.449 33.9489C269.122 33.9489 269.756 34.0578 270.353 34.2756C270.954 34.4886 271.484 34.8201 271.944 35.2699C272.408 35.7197 272.772 36.2926 273.037 36.9886C273.302 37.6799 273.435 38.5038 273.435 39.4602V40.2486H264.493V38.5156H270.971C270.966 38.0232 270.859 37.5852 270.651 37.2017C270.443 36.8134 270.151 36.508 269.777 36.2855C269.408 36.063 268.977 35.9517 268.485 35.9517C267.959 35.9517 267.498 36.0795 267.1 36.3352C266.702 36.5862 266.392 36.9176 266.169 37.3295C265.952 37.7367 265.84 38.1842 265.836 38.6719V40.1847C265.836 40.8191 265.952 41.3636 266.184 41.8182C266.416 42.268 266.74 42.6136 267.157 42.8551C267.573 43.0919 268.061 43.2102 268.62 43.2102C268.994 43.2102 269.332 43.1581 269.635 43.054C269.938 42.9451 270.201 42.7865 270.424 42.5781C270.646 42.3698 270.814 42.1117 270.928 41.804L273.328 42.0739C273.177 42.7083 272.888 43.2623 272.462 43.7358C272.041 44.2045 271.501 44.5691 270.843 44.8295C270.185 45.0852 269.432 45.2131 268.584 45.2131ZM129.179 59.0994C129.061 58.7159 128.897 58.3726 128.689 58.0696C128.485 57.7618 128.239 57.4991 127.95 57.2812C127.666 57.0634 127.339 56.9001 126.97 56.7912C126.601 56.6776 126.198 56.6207 125.763 56.6207C124.982 56.6207 124.286 56.8172 123.675 57.2102C123.064 57.6032 122.583 58.1809 122.233 58.9432C121.887 59.7008 121.714 60.6241 121.714 61.7131C121.714 62.8116 121.887 63.742 122.233 64.5043C122.579 65.2666 123.059 65.8466 123.675 66.2443C124.29 66.6373 125.005 66.8338 125.82 66.8338C126.558 66.8338 127.197 66.6918 127.737 66.4077C128.282 66.1236 128.701 65.7211 128.994 65.2003C129.288 64.6747 129.435 64.0592 129.435 63.3537L130.031 63.446H126.082V61.3864H131.984V63.1335C131.984 64.3788 131.719 65.456 131.189 66.3651C130.659 67.2741 129.929 67.9749 129.001 68.4673C128.073 68.955 127.008 69.1989 125.805 69.1989C124.465 69.1989 123.289 68.8982 122.276 68.2969C121.267 67.6908 120.479 66.8314 119.911 65.7188C119.347 64.6013 119.065 63.2756 119.065 61.7415C119.065 60.5672 119.231 59.5185 119.562 58.5952C119.899 57.6719 120.367 56.8883 120.969 56.2443C121.57 55.5956 122.276 55.1032 123.085 54.767C123.895 54.4261 124.776 54.2557 125.727 54.2557C126.532 54.2557 127.283 54.3741 127.979 54.6108C128.675 54.8428 129.293 55.1742 129.832 55.6051C130.377 56.036 130.824 56.5473 131.175 57.1392C131.525 57.7311 131.755 58.3845 131.864 59.0994H129.179ZM134.419 69V58.0909H136.912V59.9091H137.025C137.224 59.2794 137.565 58.794 138.048 58.4531C138.536 58.1075 139.092 57.9347 139.717 57.9347C139.859 57.9347 140.018 57.9418 140.193 57.956C140.373 57.9654 140.522 57.982 140.64 58.0057V60.3707C140.531 60.3329 140.359 60.2997 140.122 60.2713C139.89 60.2382 139.665 60.2216 139.447 60.2216C138.978 60.2216 138.557 60.3234 138.183 60.527C137.814 60.7259 137.522 61.0028 137.309 61.358C137.096 61.7131 136.99 62.1226 136.99 62.5866V69H134.419ZM146.658 69.2131C145.592 69.2131 144.669 68.9787 143.888 68.5099C143.107 68.0412 142.5 67.3854 142.07 66.5426C141.643 65.6998 141.43 64.715 141.43 63.5881C141.43 62.4612 141.643 61.474 142.07 60.6264C142.5 59.7789 143.107 59.1207 143.888 58.652C144.669 58.1832 145.592 57.9489 146.658 57.9489C147.723 57.9489 148.646 58.1832 149.428 58.652C150.209 59.1207 150.813 59.7789 151.239 60.6264C151.67 61.474 151.885 62.4612 151.885 63.5881C151.885 64.715 151.67 65.6998 151.239 66.5426C150.813 67.3854 150.209 68.0412 149.428 68.5099C148.646 68.9787 147.723 69.2131 146.658 69.2131ZM146.672 67.1534C147.25 67.1534 147.732 66.9948 148.121 66.6776C148.509 66.3556 148.798 65.9247 148.987 65.3849C149.181 64.8452 149.278 64.2438 149.278 63.581C149.278 62.9134 149.181 62.3097 148.987 61.7699C148.798 61.2254 148.509 60.7921 148.121 60.4702C147.732 60.1482 147.25 59.9872 146.672 59.9872C146.08 59.9872 145.588 60.1482 145.195 60.4702C144.806 60.7921 144.515 61.2254 144.321 61.7699C144.132 62.3097 144.037 62.9134 144.037 63.581C144.037 64.2438 144.132 64.8452 144.321 65.3849C144.515 65.9247 144.806 66.3556 145.195 66.6776C145.588 66.9948 146.08 67.1534 146.672 67.1534ZM156.006 69L152.924 58.0909H155.544L157.462 65.7614H157.561L159.522 58.0909H162.114L164.074 65.7188H164.181L166.07 58.0909H168.698L165.608 69H162.931L160.885 61.6278H160.736L158.691 69H156.006ZM175.94 58.0909V60.0795H169.669V58.0909H175.94ZM171.217 55.4773H173.788V65.7188C173.788 66.0644 173.84 66.3295 173.945 66.5142C174.054 66.6941 174.196 66.8172 174.371 66.8835C174.546 66.9498 174.74 66.983 174.953 66.983C175.114 66.983 175.261 66.9711 175.393 66.9474C175.531 66.9238 175.635 66.9025 175.706 66.8835L176.139 68.8935C176.002 68.9408 175.805 68.9929 175.55 69.0497C175.299 69.1065 174.991 69.1397 174.626 69.1491C173.982 69.1681 173.402 69.071 172.886 68.858C172.37 68.6402 171.961 68.304 171.658 67.8494C171.359 67.3949 171.213 66.8267 171.217 66.1449V55.4773ZM180.896 62.608V69H178.325V54.4545H180.839V59.9446H180.967C181.223 59.3291 181.618 58.8437 182.153 58.4886C182.693 58.1288 183.379 57.9489 184.213 57.9489C184.97 57.9489 185.631 58.1075 186.194 58.4247C186.758 58.742 187.193 59.206 187.501 59.8168C187.814 60.4276 187.97 61.1733 187.97 62.054V69H185.399V62.4517C185.399 61.7178 185.209 61.1473 184.831 60.7401C184.457 60.3281 183.931 60.1222 183.254 60.1222C182.799 60.1222 182.392 60.2216 182.032 60.4205C181.677 60.6146 181.398 60.8963 181.194 61.2656C180.995 61.6349 180.896 62.0824 180.896 62.608Z" fill="black"/>
<path d="M66.6108 234.67V224.841H68.8409V234.67H66.6108ZM62.8111 230.871V228.641H72.6406V230.871H62.8111ZM80.4371 238.818V220.636H81.6019V238.818H80.4371ZM83.7965 226.453C83.7302 225.833 83.4509 225.35 82.9585 225.004C82.4708 224.659 81.8363 224.486 81.055 224.486C80.5058 224.486 80.0347 224.569 79.6417 224.734C79.2487 224.9 78.948 225.125 78.7397 225.409C78.5314 225.693 78.4248 226.018 78.4201 226.382C78.4201 226.685 78.4888 226.948 78.6261 227.17C78.7681 227.393 78.9599 227.582 79.2013 227.739C79.4428 227.89 79.7103 228.018 80.0039 228.122C80.2975 228.226 80.5934 228.314 80.8917 228.385L82.2553 228.726C82.8046 228.854 83.3325 229.027 83.8391 229.244C84.3505 229.462 84.8074 229.737 85.2099 230.068C85.6171 230.4 85.939 230.8 86.1758 231.268C86.4125 231.737 86.5309 232.286 86.5309 232.916C86.5309 233.768 86.3131 234.519 85.8775 235.168C85.4419 235.812 84.8121 236.316 83.9883 236.68C83.1692 237.04 82.1772 237.22 81.0124 237.22C79.8808 237.22 78.8983 237.045 78.065 236.695C77.2364 236.344 76.5877 235.833 76.119 235.161C75.6549 234.488 75.404 233.669 75.3661 232.703H77.9585C77.9963 233.21 78.1526 233.631 78.4272 233.967C78.7018 234.304 79.0593 234.554 79.4996 234.72C79.9447 234.886 80.4419 234.969 80.9911 234.969C81.564 234.969 82.0659 234.884 82.4968 234.713C82.9324 234.538 83.2733 234.296 83.5195 233.989C83.7657 233.676 83.8912 233.312 83.896 232.895C83.8912 232.516 83.7799 232.204 83.5621 231.957C83.3443 231.706 83.0389 231.498 82.646 231.332C82.2577 231.162 81.8031 231.01 81.2823 230.878L79.6275 230.452C78.4296 230.144 77.4826 229.678 76.7866 229.053C76.0953 228.423 75.7496 227.587 75.7496 226.545C75.7496 225.688 75.9817 224.938 76.4457 224.294C76.9144 223.65 77.5513 223.151 78.3562 222.795C79.1611 222.436 80.0726 222.256 81.0906 222.256C82.1228 222.256 83.0271 222.436 83.8036 222.795C84.5849 223.151 85.198 223.645 85.6431 224.28C86.0882 224.91 86.3178 225.634 86.332 226.453H83.7965ZM93.7947 237.199C92.8478 237.199 92.0002 237.021 91.2521 236.666C90.504 236.306 89.9098 235.814 89.4695 235.189C89.0339 234.564 88.8018 233.849 88.7734 233.044H91.3303C91.3776 233.641 91.6357 234.128 92.1044 234.507C92.5732 234.881 93.1366 235.068 93.7947 235.068C94.3108 235.068 94.7701 234.95 95.1726 234.713C95.575 234.476 95.8923 234.147 96.1243 233.726C96.3563 233.304 96.4699 232.824 96.4652 232.284C96.4699 231.735 96.3539 231.247 96.1172 230.821C95.8804 230.395 95.5561 230.061 95.1442 229.82C94.7322 229.573 94.2588 229.45 93.7237 229.45C93.2881 229.446 92.8596 229.526 92.4382 229.692C92.0168 229.857 91.683 230.075 91.4368 230.345L89.0575 229.955L89.8175 222.455H98.255V224.656H91.9979L91.5788 228.513H91.6641C91.9339 228.196 92.3151 227.933 92.8075 227.724C93.3 227.511 93.8397 227.405 94.4268 227.405C95.3075 227.405 96.0935 227.613 96.7848 228.03C97.4761 228.442 98.0206 229.01 98.4183 229.734C98.8161 230.459 99.0149 231.287 99.0149 232.22C99.0149 233.181 98.7924 234.038 98.3473 234.791C97.907 235.539 97.2938 236.129 96.5078 236.56C95.7266 236.986 94.8222 237.199 93.7947 237.199ZM106.771 237.277C105.601 237.277 104.597 236.981 103.759 236.389C102.926 235.793 102.284 234.933 101.835 233.811C101.389 232.684 101.167 231.328 101.167 229.741C101.172 228.155 101.397 226.806 101.842 225.693C102.291 224.576 102.933 223.723 103.766 223.136C104.604 222.549 105.606 222.256 106.771 222.256C107.935 222.256 108.937 222.549 109.775 223.136C110.613 223.723 111.254 224.576 111.7 225.693C112.149 226.811 112.374 228.16 112.374 229.741C112.374 231.332 112.149 232.691 111.7 233.818C111.254 234.94 110.613 235.797 109.775 236.389C108.942 236.981 107.94 237.277 106.771 237.277ZM106.771 235.054C107.68 235.054 108.397 234.607 108.923 233.712C109.453 232.812 109.718 231.489 109.718 229.741C109.718 228.586 109.597 227.616 109.356 226.83C109.114 226.044 108.773 225.452 108.333 225.054C107.893 224.652 107.372 224.45 106.771 224.45C105.866 224.45 105.151 224.9 104.626 225.8C104.1 226.695 103.835 228.009 103.83 229.741C103.826 230.902 103.942 231.877 104.178 232.668C104.42 233.458 104.761 234.055 105.201 234.457C105.641 234.855 106.165 235.054 106.771 235.054ZM120.11 237.277C118.941 237.277 117.937 236.981 117.099 236.389C116.266 235.793 115.624 234.933 115.174 233.811C114.729 232.684 114.507 231.328 114.507 229.741C114.511 228.155 114.736 226.806 115.181 225.693C115.631 224.576 116.273 223.723 117.106 223.136C117.944 222.549 118.946 222.256 120.11 222.256C121.275 222.256 122.277 222.549 123.115 223.136C123.953 223.723 124.594 224.576 125.039 225.693C125.489 226.811 125.714 228.16 125.714 229.741C125.714 231.332 125.489 232.691 125.039 233.818C124.594 234.94 123.953 235.797 123.115 236.389C122.281 236.981 121.28 237.277 120.11 237.277ZM120.11 235.054C121.02 235.054 121.737 234.607 122.262 233.712C122.793 232.812 123.058 231.489 123.058 229.741C123.058 228.586 122.937 227.616 122.696 226.83C122.454 226.044 122.113 225.452 121.673 225.054C121.233 224.652 120.712 224.45 120.11 224.45C119.206 224.45 118.491 224.9 117.966 225.8C117.44 226.695 117.175 228.009 117.17 229.741C117.165 230.902 117.281 231.877 117.518 232.668C117.76 233.458 118.1 234.055 118.541 234.457C118.981 234.855 119.504 235.054 120.11 235.054ZM130.554 235.011L130.462 235.793C130.396 236.389 130.277 236.995 130.107 237.611C129.941 238.231 129.766 238.802 129.581 239.322C129.397 239.843 129.248 240.253 129.134 240.551H127.401C127.467 240.262 127.557 239.869 127.671 239.372C127.789 238.875 127.903 238.316 128.012 237.696C128.121 237.076 128.194 236.446 128.232 235.807L128.282 235.011H130.554ZM138.216 237.277C137.046 237.277 136.043 236.981 135.205 236.389C134.371 235.793 133.73 234.933 133.28 233.811C132.835 232.684 132.612 231.328 132.612 229.741C132.617 228.155 132.842 226.806 133.287 225.693C133.737 224.576 134.378 223.723 135.212 223.136C136.05 222.549 137.051 222.256 138.216 222.256C139.381 222.256 140.382 222.549 141.22 223.136C142.058 223.723 142.7 224.576 143.145 225.693C143.595 226.811 143.82 228.16 143.82 229.741C143.82 231.332 143.595 232.691 143.145 233.818C142.7 234.94 142.058 235.797 141.22 236.389C140.387 236.981 139.385 237.277 138.216 237.277ZM138.216 235.054C139.125 235.054 139.842 234.607 140.368 233.712C140.898 232.812 141.163 231.489 141.163 229.741C141.163 228.586 141.043 227.616 140.801 226.83C140.56 226.044 140.219 225.452 139.778 225.054C139.338 224.652 138.817 224.45 138.216 224.45C137.312 224.45 136.597 224.9 136.071 225.8C135.545 226.695 135.28 228.009 135.276 229.741C135.271 230.902 135.387 231.877 135.624 232.668C135.865 233.458 136.206 234.055 136.646 234.457C137.087 234.855 137.61 235.054 138.216 235.054ZM151.556 237.277C150.386 237.277 149.382 236.981 148.544 236.389C147.711 235.793 147.069 234.933 146.62 233.811C146.175 232.684 145.952 231.328 145.952 229.741C145.957 228.155 146.182 226.806 146.627 225.693C147.077 224.576 147.718 223.723 148.551 223.136C149.39 222.549 150.391 222.256 151.556 222.256C152.721 222.256 153.722 222.549 154.56 223.136C155.398 223.723 156.04 224.576 156.485 225.693C156.935 226.811 157.159 228.16 157.159 229.741C157.159 231.332 156.935 232.691 156.485 233.818C156.04 234.94 155.398 235.797 154.56 236.389C153.727 236.981 152.725 237.277 151.556 237.277ZM151.556 235.054C152.465 235.054 153.182 234.607 153.708 233.712C154.238 232.812 154.503 231.489 154.503 229.741C154.503 228.586 154.382 227.616 154.141 226.83C153.9 226.044 153.559 225.452 153.118 225.054C152.678 224.652 152.157 224.45 151.556 224.45C150.651 224.45 149.936 224.9 149.411 225.8C148.885 226.695 148.62 228.009 148.615 229.741C148.611 230.902 148.727 231.877 148.963 232.668C149.205 233.458 149.546 234.055 149.986 234.457C150.426 234.855 150.95 235.054 151.556 235.054ZM164.896 237.277C163.726 237.277 162.722 236.981 161.884 236.389C161.051 235.793 160.409 234.933 159.96 233.811C159.514 232.684 159.292 231.328 159.292 229.741C159.297 228.155 159.522 226.806 159.967 225.693C160.416 224.576 161.058 223.723 161.891 223.136C162.729 222.549 163.731 222.256 164.896 222.256C166.06 222.256 167.062 222.549 167.9 223.136C168.738 223.723 169.379 224.576 169.825 225.693C170.274 226.811 170.499 228.16 170.499 229.741C170.499 231.332 170.274 232.691 169.825 233.818C169.379 234.94 168.738 235.797 167.9 236.389C167.067 236.981 166.065 237.277 164.896 237.277ZM164.896 235.054C165.805 235.054 166.522 234.607 167.048 233.712C167.578 232.812 167.843 231.489 167.843 229.741C167.843 228.586 167.722 227.616 167.481 226.83C167.239 226.044 166.898 225.452 166.458 225.054C166.018 224.652 165.497 224.45 164.896 224.45C163.991 224.45 163.276 224.9 162.751 225.8C162.225 226.695 161.96 228.009 161.955 229.741C161.951 230.902 162.067 231.877 162.303 232.668C162.545 233.458 162.886 234.055 163.326 234.457C163.766 234.855 164.29 235.054 164.896 235.054Z" fill="black"/>
<path d="M63.5852 267V253.909H68.0085C69.0313 253.909 69.8707 254.084 70.527 254.433C71.1832 254.778 71.669 255.254 71.9844 255.859C72.2997 256.464 72.4574 257.152 72.4574 257.923C72.4574 258.695 72.2997 259.379 71.9844 259.975C71.669 260.572 71.1854 261.04 70.5334 261.381C69.8814 261.718 69.0483 261.886 68.0341 261.886H64.4545V260.455H67.983C68.6818 260.455 69.2443 260.352 69.6705 260.148C70.1009 259.943 70.4119 259.653 70.6037 259.278C70.7997 258.899 70.8977 258.447 70.8977 257.923C70.8977 257.399 70.7997 256.941 70.6037 256.549C70.4077 256.157 70.0945 255.854 69.6641 255.641C69.2337 255.424 68.6648 255.315 67.9574 255.315H65.1705V267H63.5852ZM69.7472 261.119L72.9688 267H71.1278L67.9574 261.119H69.7472ZM78.9054 267.205C77.9593 267.205 77.1433 266.996 76.4572 266.578C75.7754 266.156 75.2491 265.568 74.8784 264.814C74.5119 264.055 74.3287 263.173 74.3287 262.168C74.3287 261.162 74.5119 260.276 74.8784 259.509C75.2491 258.737 75.7647 258.136 76.4252 257.706C77.09 257.271 77.8656 257.054 78.752 257.054C79.2633 257.054 79.7683 257.139 80.2669 257.31C80.7654 257.48 81.2193 257.757 81.6284 258.141C82.0375 258.52 82.3635 259.023 82.6064 259.649C82.8493 260.276 82.9707 261.047 82.9707 261.963V262.602H75.4025V261.298H81.4366C81.4366 260.744 81.3258 260.25 81.1042 259.815C80.8869 259.381 80.5758 259.038 80.171 258.786C79.7704 258.535 79.2974 258.409 78.752 258.409C78.1511 258.409 77.6312 258.558 77.1923 258.857C76.7576 259.151 76.4231 259.534 76.1887 260.007C75.9544 260.48 75.8372 260.987 75.8372 261.528V262.398C75.8372 263.139 75.965 263.768 76.2207 264.283C76.4806 264.795 76.8407 265.185 77.301 265.453C77.7612 265.717 78.296 265.849 78.9054 265.849C79.3017 265.849 79.6596 265.794 79.9792 265.683C80.3031 265.568 80.5822 265.398 80.8166 265.172C81.051 264.942 81.2321 264.656 81.3599 264.315L82.8173 264.724C82.6639 265.219 82.4061 265.653 82.0439 266.028C81.6816 266.399 81.2342 266.689 80.7015 266.898C80.1689 267.102 79.5701 267.205 78.9054 267.205ZM92.995 257.182L89.3643 267H87.8303L84.1996 257.182H85.8359L88.5462 265.006H88.6484L91.3587 257.182H92.995ZM98.7511 267.205C97.805 267.205 96.989 266.996 96.3029 266.578C95.6211 266.156 95.0948 265.568 94.7241 264.814C94.3576 264.055 94.1744 263.173 94.1744 262.168C94.1744 261.162 94.3576 260.276 94.7241 259.509C95.0948 258.737 95.6104 258.136 96.271 257.706C96.9357 257.271 97.7113 257.054 98.5977 257.054C99.109 257.054 99.614 257.139 100.113 257.31C100.611 257.48 101.065 257.757 101.474 258.141C101.883 258.52 102.209 259.023 102.452 259.649C102.695 260.276 102.816 261.047 102.816 261.963V262.602H95.2482V261.298H101.282C101.282 260.744 101.172 260.25 100.95 259.815C100.733 259.381 100.422 259.038 100.017 258.786C99.6161 258.535 99.1431 258.409 98.5977 258.409C97.9968 258.409 97.4769 258.558 97.038 258.857C96.6033 259.151 96.2688 259.534 96.0344 260.007C95.8001 260.48 95.6829 260.987 95.6829 261.528V262.398C95.6829 263.139 95.8107 263.768 96.0664 264.283C96.3263 264.795 96.6864 265.185 97.1467 265.453C97.6069 265.717 98.1417 265.849 98.7511 265.849C99.1474 265.849 99.5053 265.794 99.8249 265.683C100.149 265.568 100.428 265.398 100.662 265.172C100.897 264.942 101.078 264.656 101.206 264.315L102.663 264.724C102.51 265.219 102.252 265.653 101.89 266.028C101.527 266.399 101.08 266.689 100.547 266.898C100.015 267.102 99.4158 267.205 98.7511 267.205ZM106.62 261.094V267H105.111V257.182H106.569V258.716H106.696C106.926 258.217 107.276 257.817 107.745 257.514C108.213 257.207 108.819 257.054 109.56 257.054C110.225 257.054 110.806 257.19 111.305 257.463C111.804 257.732 112.191 258.141 112.468 258.69C112.745 259.236 112.884 259.926 112.884 260.761V267H111.375V260.864C111.375 260.092 111.175 259.491 110.775 259.061C110.374 258.626 109.824 258.409 109.125 258.409C108.644 258.409 108.213 258.513 107.834 258.722C107.459 258.931 107.163 259.236 106.946 259.636C106.728 260.037 106.62 260.523 106.62 261.094ZM121.828 262.986V257.182H123.336V267H121.828V265.338H121.726C121.496 265.837 121.138 266.261 120.652 266.61C120.166 266.955 119.552 267.128 118.811 267.128C118.197 267.128 117.652 266.994 117.175 266.725C116.697 266.452 116.322 266.043 116.05 265.498C115.777 264.948 115.64 264.256 115.64 263.42V257.182H117.149V263.318C117.149 264.034 117.349 264.605 117.75 265.031C118.155 265.457 118.67 265.67 119.297 265.67C119.672 265.67 120.053 265.575 120.441 265.383C120.833 265.191 121.161 264.897 121.425 264.501C121.694 264.104 121.828 263.599 121.828 262.986ZM130.216 267.205C129.27 267.205 128.454 266.996 127.768 266.578C127.086 266.156 126.56 265.568 126.189 264.814C125.822 264.055 125.639 263.173 125.639 262.168C125.639 261.162 125.822 260.276 126.189 259.509C126.56 258.737 127.075 258.136 127.736 257.706C128.401 257.271 129.176 257.054 130.062 257.054C130.574 257.054 131.079 257.139 131.577 257.31C132.076 257.48 132.53 257.757 132.939 258.141C133.348 258.52 133.674 259.023 133.917 259.649C134.16 260.276 134.281 261.047 134.281 261.963V262.602H126.713V261.298H132.747C132.747 260.744 132.636 260.25 132.415 259.815C132.197 259.381 131.886 259.038 131.482 258.786C131.081 258.535 130.608 258.409 130.062 258.409C129.462 258.409 128.942 258.558 128.503 258.857C128.068 259.151 127.734 259.534 127.499 260.007C127.265 260.48 127.148 260.987 127.148 261.528V262.398C127.148 263.139 127.276 263.768 127.531 264.283C127.791 264.795 128.151 265.185 128.612 265.453C129.072 265.717 129.607 265.849 130.216 265.849C130.612 265.849 130.97 265.794 131.29 265.683C131.614 265.568 131.893 265.398 132.127 265.172C132.362 264.942 132.543 264.656 132.67 264.315L134.128 264.724C133.974 265.219 133.717 265.653 133.354 266.028C132.992 266.399 132.545 266.689 132.012 266.898C131.479 267.102 130.881 267.205 130.216 267.205ZM141.638 267V257.182H143.147V267H141.638ZM142.406 255.545C142.112 255.545 141.858 255.445 141.645 255.245C141.436 255.045 141.332 254.804 141.332 254.523C141.332 254.241 141.436 254.001 141.645 253.8C141.858 253.6 142.112 253.5 142.406 253.5C142.7 253.5 142.951 253.6 143.16 253.8C143.373 254.001 143.479 254.241 143.479 254.523C143.479 254.804 143.373 255.045 143.16 255.245C142.951 255.445 142.7 255.545 142.406 255.545ZM147.419 261.094V267H145.91V257.182H147.367V258.716H147.495C147.725 258.217 148.075 257.817 148.544 257.514C149.012 257.207 149.617 257.054 150.359 257.054C151.024 257.054 151.605 257.19 152.104 257.463C152.602 257.732 152.99 258.141 153.267 258.69C153.544 259.236 153.683 259.926 153.683 260.761V267H152.174V260.864C152.174 260.092 151.974 259.491 151.573 259.061C151.173 258.626 150.623 258.409 149.924 258.409C149.443 258.409 149.012 258.513 148.633 258.722C148.258 258.931 147.962 259.236 147.744 259.636C147.527 260.037 147.419 260.523 147.419 261.094ZM163.01 253.909V267H161.502V253.909H163.01ZM168.662 267.23C168.04 267.23 167.476 267.113 166.969 266.879C166.461 266.64 166.059 266.297 165.76 265.849C165.462 265.398 165.313 264.852 165.313 264.213C165.313 263.651 165.424 263.195 165.645 262.845C165.867 262.491 166.163 262.214 166.534 262.014C166.905 261.814 167.314 261.665 167.761 261.567C168.213 261.464 168.667 261.384 169.123 261.324C169.719 261.247 170.203 261.19 170.574 261.151C170.949 261.109 171.221 261.038 171.392 260.94C171.567 260.842 171.654 260.672 171.654 260.429V260.378C171.654 259.747 171.481 259.257 171.136 258.908C170.795 258.558 170.278 258.384 169.583 258.384C168.863 258.384 168.298 258.541 167.889 258.857C167.48 259.172 167.192 259.509 167.026 259.866L165.594 259.355C165.85 258.759 166.191 258.294 166.617 257.962C167.047 257.625 167.516 257.391 168.023 257.259C168.535 257.122 169.037 257.054 169.532 257.054C169.847 257.054 170.209 257.092 170.618 257.169C171.032 257.241 171.43 257.393 171.814 257.623C172.202 257.853 172.523 258.2 172.779 258.665C173.035 259.129 173.162 259.751 173.162 260.531V267H171.654V265.67H171.577C171.475 265.884 171.305 266.112 171.066 266.354C170.827 266.597 170.51 266.804 170.113 266.974C169.717 267.145 169.233 267.23 168.662 267.23ZM168.893 265.875C169.489 265.875 169.992 265.758 170.401 265.523C170.814 265.289 171.126 264.987 171.334 264.616C171.547 264.245 171.654 263.855 171.654 263.446V262.065C171.59 262.142 171.449 262.212 171.232 262.276C171.019 262.336 170.772 262.389 170.491 262.436C170.214 262.479 169.943 262.517 169.679 262.551C169.419 262.581 169.208 262.607 169.046 262.628C168.654 262.679 168.287 262.762 167.947 262.877C167.61 262.988 167.337 263.156 167.128 263.382C166.924 263.604 166.822 263.906 166.822 264.29C166.822 264.814 167.015 265.21 167.403 265.479C167.795 265.743 168.292 265.875 168.893 265.875ZM182.87 259.381L181.515 259.764C181.43 259.538 181.304 259.319 181.138 259.106C180.976 258.888 180.755 258.71 180.473 258.569C180.192 258.428 179.832 258.358 179.393 258.358C178.792 258.358 178.292 258.496 177.891 258.773C177.495 259.046 177.297 259.393 177.297 259.815C177.297 260.19 177.433 260.487 177.706 260.704C177.978 260.921 178.404 261.102 178.984 261.247L180.441 261.605C181.319 261.818 181.973 262.144 182.404 262.583C182.834 263.018 183.049 263.578 183.049 264.264C183.049 264.827 182.887 265.33 182.564 265.773C182.244 266.216 181.797 266.565 181.221 266.821C180.646 267.077 179.977 267.205 179.214 267.205C178.213 267.205 177.384 266.987 176.728 266.553C176.071 266.118 175.656 265.483 175.481 264.648L176.913 264.29C177.049 264.818 177.307 265.214 177.686 265.479C178.07 265.743 178.571 265.875 179.189 265.875C179.892 265.875 180.45 265.726 180.863 265.428C181.281 265.125 181.49 264.763 181.49 264.341C181.49 264 181.37 263.714 181.132 263.484C180.893 263.25 180.527 263.075 180.032 262.96L178.396 262.577C177.497 262.364 176.836 262.033 176.414 261.586C175.997 261.134 175.788 260.57 175.788 259.892C175.788 259.338 175.944 258.848 176.255 258.422C176.57 257.996 176.998 257.661 177.539 257.418C178.085 257.175 178.703 257.054 179.393 257.054C180.365 257.054 181.127 257.267 181.681 257.693C182.24 258.119 182.636 258.682 182.87 259.381ZM189.59 257.182V258.46H184.502V257.182H189.59ZM185.985 254.83H187.493V264.188C187.493 264.614 187.555 264.933 187.679 265.146C187.807 265.355 187.969 265.496 188.165 265.568C188.365 265.636 188.576 265.67 188.797 265.67C188.964 265.67 189.1 265.662 189.206 265.645C189.313 265.624 189.398 265.607 189.462 265.594L189.769 266.949C189.667 266.987 189.524 267.026 189.341 267.064C189.157 267.107 188.925 267.128 188.644 267.128C188.218 267.128 187.8 267.036 187.391 266.853C186.986 266.67 186.65 266.391 186.381 266.016C186.117 265.641 185.985 265.168 185.985 264.597V254.83ZM201.498 253.909V267H199.913V255.571H199.836L196.64 257.693V256.082L199.913 253.909H201.498ZM205.263 267V265.849L209.584 261.119C210.091 260.565 210.509 260.084 210.837 259.675C211.165 259.261 211.408 258.874 211.566 258.511C211.728 258.145 211.809 257.761 211.809 257.361C211.809 256.901 211.698 256.502 211.476 256.165C211.259 255.829 210.961 255.569 210.581 255.386C210.202 255.202 209.776 255.111 209.303 255.111C208.8 255.111 208.361 255.215 207.986 255.424C207.616 255.629 207.328 255.916 207.123 256.287C206.923 256.658 206.823 257.092 206.823 257.591H205.314C205.314 256.824 205.491 256.151 205.845 255.571C206.199 254.991 206.68 254.54 207.29 254.216C207.903 253.892 208.591 253.73 209.354 253.73C210.121 253.73 210.801 253.892 211.393 254.216C211.986 254.54 212.45 254.977 212.787 255.526C213.123 256.076 213.292 256.688 213.292 257.361C213.292 257.842 213.204 258.313 213.03 258.773C212.859 259.229 212.561 259.739 212.135 260.301C211.713 260.859 211.127 261.541 210.377 262.347L207.437 265.491V265.594H213.522V267H205.263ZM221.25 267V257.182H222.707V258.716H222.835C223.04 258.192 223.37 257.785 223.826 257.495C224.282 257.201 224.829 257.054 225.469 257.054C226.116 257.054 226.655 257.201 227.086 257.495C227.52 257.785 227.859 258.192 228.102 258.716H228.204C228.456 258.209 228.833 257.806 229.336 257.508C229.839 257.205 230.442 257.054 231.145 257.054C232.023 257.054 232.741 257.329 233.299 257.879C233.857 258.424 234.136 259.274 234.136 260.429V267H232.628V260.429C232.628 259.705 232.43 259.187 232.033 258.876C231.637 258.565 231.17 258.409 230.633 258.409C229.943 258.409 229.408 258.618 229.029 259.036C228.65 259.449 228.46 259.973 228.46 260.608V267H226.926V260.276C226.926 259.717 226.745 259.268 226.383 258.927C226.02 258.582 225.554 258.409 224.983 258.409C224.591 258.409 224.224 258.513 223.883 258.722C223.547 258.931 223.274 259.221 223.065 259.592C222.861 259.958 222.758 260.382 222.758 260.864V267H221.25ZM240.883 267.205C239.997 267.205 239.219 266.994 238.55 266.572C237.885 266.15 237.365 265.56 236.99 264.801C236.619 264.043 236.434 263.156 236.434 262.142C236.434 261.119 236.619 260.227 236.99 259.464C237.365 258.701 237.885 258.109 238.55 257.687C239.219 257.265 239.997 257.054 240.883 257.054C241.769 257.054 242.545 257.265 243.21 257.687C243.879 258.109 244.399 258.701 244.769 259.464C245.144 260.227 245.332 261.119 245.332 262.142C245.332 263.156 245.144 264.043 244.769 264.801C244.399 265.56 243.879 266.15 243.21 266.572C242.545 266.994 241.769 267.205 240.883 267.205ZM240.883 265.849C241.556 265.849 242.11 265.677 242.545 265.332C242.98 264.987 243.301 264.533 243.51 263.97C243.719 263.408 243.823 262.798 243.823 262.142C243.823 261.486 243.719 260.874 243.51 260.308C243.301 259.741 242.98 259.283 242.545 258.933C242.11 258.584 241.556 258.409 240.883 258.409C240.21 258.409 239.656 258.584 239.221 258.933C238.786 259.283 238.465 259.741 238.256 260.308C238.047 260.874 237.943 261.486 237.943 262.142C237.943 262.798 238.047 263.408 238.256 263.97C238.465 264.533 238.786 264.987 239.221 265.332C239.656 265.677 240.21 265.849 240.883 265.849ZM249.143 261.094V267H247.635V257.182H249.092V258.716H249.22C249.45 258.217 249.799 257.817 250.268 257.514C250.737 257.207 251.342 257.054 252.083 257.054C252.748 257.054 253.33 257.19 253.828 257.463C254.327 257.732 254.715 258.141 254.992 258.69C255.269 259.236 255.407 259.926 255.407 260.761V267H253.899V260.864C253.899 260.092 253.699 259.491 253.298 259.061C252.897 258.626 252.348 258.409 251.649 258.409C251.167 258.409 250.737 258.513 250.358 258.722C249.983 258.931 249.686 259.236 249.469 259.636C249.252 260.037 249.143 260.523 249.143 261.094ZM262.434 257.182V258.46H257.346V257.182H262.434ZM258.829 254.83H260.337V264.188C260.337 264.614 260.399 264.933 260.523 265.146C260.65 265.355 260.812 265.496 261.008 265.568C261.209 265.636 261.42 265.67 261.641 265.67C261.807 265.67 261.944 265.662 262.05 265.645C262.157 265.624 262.242 265.607 262.306 265.594L262.613 266.949C262.51 266.987 262.368 267.026 262.184 267.064C262.001 267.107 261.769 267.128 261.488 267.128C261.062 267.128 260.644 267.036 260.235 266.853C259.83 266.67 259.493 266.391 259.225 266.016C258.961 265.641 258.829 265.168 258.829 264.597V254.83ZM266.422 261.094V267H264.914V253.909H266.422V258.716H266.55C266.78 258.209 267.126 257.806 267.586 257.508C268.05 257.205 268.668 257.054 269.439 257.054C270.108 257.054 270.694 257.188 271.197 257.457C271.7 257.721 272.09 258.128 272.367 258.678C272.648 259.223 272.789 259.918 272.789 260.761V267H271.28V260.864C271.28 260.084 271.078 259.481 270.673 259.055C270.273 258.624 269.716 258.409 269.005 258.409C268.51 258.409 268.067 258.513 267.675 258.722C267.287 258.931 266.981 259.236 266.755 259.636C266.533 260.037 266.422 260.523 266.422 261.094ZM282.503 259.381L281.148 259.764C281.063 259.538 280.937 259.319 280.771 259.106C280.609 258.888 280.387 258.71 280.106 258.569C279.825 258.428 279.465 258.358 279.026 258.358C278.425 258.358 277.924 258.496 277.524 258.773C277.127 259.046 276.929 259.393 276.929 259.815C276.929 260.19 277.066 260.487 277.338 260.704C277.611 260.921 278.037 261.102 278.617 261.247L280.074 261.605C280.952 261.818 281.606 262.144 282.037 262.583C282.467 263.018 282.682 263.578 282.682 264.264C282.682 264.827 282.52 265.33 282.196 265.773C281.877 266.216 281.429 266.565 280.854 266.821C280.279 267.077 279.61 267.205 278.847 267.205C277.846 267.205 277.017 266.987 276.36 266.553C275.704 266.118 275.289 265.483 275.114 264.648L276.546 264.29C276.682 264.818 276.94 265.214 277.319 265.479C277.703 265.743 278.203 265.875 278.821 265.875C279.525 265.875 280.083 265.726 280.496 265.428C280.914 265.125 281.123 264.763 281.123 264.341C281.123 264 281.003 263.714 280.765 263.484C280.526 263.25 280.159 263.075 279.665 262.96L278.029 262.577C277.13 262.364 276.469 262.033 276.047 261.586C275.63 261.134 275.421 260.57 275.421 259.892C275.421 259.338 275.576 258.848 275.887 258.422C276.203 257.996 276.631 257.661 277.172 257.418C277.718 257.175 278.336 257.054 279.026 257.054C279.998 257.054 280.76 257.267 281.314 257.693C281.873 258.119 282.269 258.682 282.503 259.381Z" fill="black"/>
<path d="M61 73H320.358V207.808H61V73Z" fill="url(#paint0_linear_2_49)"/>
<path d="M88.6448 184.233L61 206.787V73H319.353L311.814 76.0756L301.258 80.1763L292.211 83.7644L281.656 89.9156L272.106 97.0919L262.556 108.369L252.503 118.621L240.942 126.822L228.377 131.948L213.298 134.511L196.208 136.049L184.145 141.175L174.092 150.914L163.034 165.267L151.474 171.418L133.882 172.956L111.766 175.519L88.6448 184.233Z" fill="white"/>
<path d="M63.0111 204.744C63.0111 204.744 90.7135 178.839 119.873 174.894C129.128 173.641 134.935 175.213 144.14 173.842C174.574 169.309 166.885 145.061 195.931 138.106C205.096 135.912 211.252 136.514 220.56 134.533C263.511 125.391 259.064 97.9847 296.618 82.8201C304.802 79.5152 318.348 75.0422 318.348 75.0422" stroke="#004A98" stroke-width="4" stroke-linecap="round"/>
<defs>
<linearGradient id="paint0_linear_2_49" x1="190.679" y1="-19.9358" x2="190.679" y2="207.808" gradientUnits="userSpaceOnUse">
<stop stop-color="#004A98"/>
<stop offset="1" stop-color="#004A98" stop-opacity="0"/>
</linearGradient>
</defs>
</svg>
