<svg width="84" height="84" viewBox="0 0 84 84" fill="none" xmlns="http://www.w3.org/2000/svg">
<g clip-path="url(#clip0_401_3)">
<path d="M68 0H16C7.16344 0 0 7.16344 0 16V68C0 76.8366 7.16344 84 16 84H68C76.8366 84 84 76.8366 84 68V16C84 7.16344 76.8366 0 68 0Z" fill="#3C78D8" fill-opacity="0.29"/>
<g clip-path="url(#clip1_401_3)">
<path d="M55.8368 30.7579V38.1872C55.8368 42.2796 52.4709 45.6553 48.3785 45.6553C42.3014 45.6553 38.0905 45.6553 32.0134 45.6553V53.7681C32.0134 57.8606 35.389 61.2362 39.4815 61.2362H51.68C55.3621 61.2249 57.2981 62.4592 57.2981 65.7689C57.2981 69.0931 62.2843 69.0931 62.2843 65.7689C62.2843 64.2578 61.9921 62.6051 61.2087 61.0937C65.3644 60.1278 67.2544 56.6259 67.2544 53.7681V38.2163C67.2544 34.1238 63.8918 30.7579 59.7993 30.7579H55.8368Z" fill="#073763"/>
<path d="M23.2942 16.8358C19.2017 16.8358 15.8358 20.2017 15.8358 24.2942C15.8442 29.4844 15.8293 34.6818 15.8293 39.8622C15.9201 43.2664 18.1232 46.3004 21.8524 47.1813C21.1871 48.4665 20.8059 50.011 20.8059 51.8436C20.8059 55.1677 25.7922 55.1677 25.7922 51.8436C25.7922 47.7132 28.9763 47.3377 31.4135 47.3141H50.2442C54.3367 47.3141 57.7026 43.9385 57.7026 39.846C57.7026 34.6621 57.7026 29.4781 57.7026 24.2942C57.7026 20.2017 54.3367 16.8358 50.2442 16.8358H23.2942Z" fill="#6D9EEB"/>
<path d="M30.242 31.8381C30.2421 32.7166 29.8932 33.5591 29.272 34.1803C28.6508 34.8016 27.808 35.1506 26.9295 35.1506C26.4945 35.1506 26.0637 35.0649 25.6618 34.8984C25.2599 34.732 24.895 34.4879 24.5874 34.1803C24.2798 33.8727 24.0356 33.5076 23.8691 33.1057C23.7026 32.7038 23.6169 32.2731 23.6169 31.8381C23.6169 31.4031 23.7026 30.9723 23.8691 30.5704C24.0356 30.1685 24.2798 29.8033 24.5874 29.4957C24.895 29.1881 25.2599 28.9441 25.6618 28.7777C26.0637 28.6112 26.4945 28.5255 26.9295 28.5255C27.808 28.5255 28.6508 28.8746 29.272 29.4958C29.8932 30.117 30.2421 30.9595 30.242 31.8381Z" fill="#B6D1FD"/>
<path d="M40.0287 31.8381C40.0287 32.7166 39.6798 33.5591 39.0586 34.1803C38.4374 34.8016 37.5946 35.1506 36.7161 35.1506C36.2811 35.1506 35.8503 35.0649 35.4484 34.8984C35.0465 34.732 34.6816 34.4879 34.374 34.1803C34.0664 33.8727 33.8222 33.5076 33.6557 33.1057C33.4893 32.7038 33.4036 32.2731 33.4036 31.8381C33.4036 31.4031 33.4893 30.9723 33.6557 30.5704C33.8222 30.1685 34.0664 29.8033 34.374 29.4957C34.6816 29.1881 35.0465 28.9441 35.4484 28.7777C35.8503 28.6112 36.2811 28.5255 36.7161 28.5255C37.5946 28.5255 38.4374 28.8746 39.0586 29.4958C39.6798 30.117 40.0287 30.9595 40.0287 31.8381Z" fill="#B6D1FD"/>
<path d="M49.6556 31.8381C49.6556 32.7166 49.3067 33.5591 48.6855 34.1803C48.0643 34.8016 47.2216 35.1506 46.3431 35.1506C45.9081 35.1506 45.4773 35.0649 45.0754 34.8984C44.6735 34.732 44.3082 34.4879 44.0006 34.1803C43.693 33.8727 43.4492 33.5076 43.2827 33.1057C43.1162 32.7038 43.0305 32.2731 43.0305 31.8381C43.0305 31.4031 43.1162 30.9723 43.2827 30.5704C43.4492 30.1685 43.693 29.8033 44.0006 29.4957C44.3082 29.1881 44.6735 28.9441 45.0754 28.7777C45.4773 28.6112 45.9081 28.5255 46.3431 28.5255C47.2216 28.5255 48.0643 28.8746 48.6855 29.4958C49.3067 30.117 49.6556 30.9595 49.6556 31.8381Z" fill="#B6D1FD"/>
</g>
</g>
<defs>
<clipPath id="clip0_401_3">
<rect width="84" height="84" fill="white"/>
</clipPath>
<clipPath id="clip1_401_3">
<rect width="53" height="53" fill="white" transform="translate(15 16)"/>
</clipPath>
</defs>
</svg>
